<svg xmlns="http://www.w3.org/2000/svg" viewBox="0 0 24 24" width="24" height="24">
  <!-- Stylized Cypress C -->
  <path fill="currentColor" d="M 13.5 4 C 8.25 4 4 8.25 4 13.5 C 4 18.75 8.25 23 13.5 23 C 16.85 23 19.8 21.25 21.5 18.6 L 18.5 16.2 C 17.4 17.8 15.6 18.8 13.5 18.8 C 10.6 18.8 8.2 16.4 8.2 13.5 C 8.2 10.6 10.6 8.2 13.5 8.2 C 15.6 8.2 17.4 9.2 18.5 10.8 L 21.5 8.4 C 19.8 5.75 16.85 4 13.5 4 Z"/>
  <!-- AI Spark (Four-Pointed Star) -->
  <path fill="currentColor" d="M 18.5 10.5 C 18.5 9 17.5 9 17.5 7.5 C 17.5 9 16.5 9 16.5 10.5 C 16.5 12 17.5 12 17.5 13.5 C 17.5 12 18.5 12 18.5 10.5 Z" transform="translate(1.5, 3) scale(0.9)"/>
  <path fill="currentColor" d="M 18.5 10.5 C 18.5 9.5 17.8 9.5 17.8 8.5 C 17.8 9.5 17.1 9.5 17.1 10.5 C 17.1 11.5 17.8 11.5 17.8 12.5 C 17.8 11.5 18.5 11.5 18.5 10.5 Z" transform="translate(-1, 9) scale(0.6)"/>
</svg>
